<svg id="Layer_1" data-name="Layer 1" xmlns="http://www.w3.org/2000/svg" viewBox="0 0 405.06 170.33"><defs><style>.cls-1{fill:#4153a0;}.cls-2{fill:#428ecc;}.cls-3{fill:#fff;}</style></defs><path class="cls-1" d="M127.07,137.92S70.64,173,33.75,121.49s13.88-136,91.31-93.86c0,0-85.46-21.74-83.82,63C41.24,90.63,51.65,160.93,127.07,137.92Z"/><path class="cls-2" d="M80.57,38.46s45.56-28.31,75.35,13.27-11.21,109.85-73.73,75.79c0,0,69,17.55,67.68-50.87C149.87,76.65,141.47,19.88,80.57,38.46Z"/><path class="cls-3" d="M102.51,61.52a15.45,15.45,0,0,0-3-1.05,46.52,46.52,0,0,0-7.62-.79q1.1,0-5,0c-1.65.14-2.47,1.14-2.47,3v16.2H97.2c1,0,1.61.17,1.79.42,0,.84-.46,1.15-1.26.94H86.31c-1.36.15-2,1.14-2,3v15H91.2a31.25,31.25,0,0,0,11.1-1.68q3.84-1.74,4-4.47v5.63a2.14,2.14,0,0,1-.73,1.79A3.18,3.18,0,0,1,104,100H78.32V62.31q.32-4.26,4.68-4.26,15-.16,19.83,0c2.34.14,3.52,1.15,3.52,3.05v4.52A6.72,6.72,0,0,0,102.51,61.52Z"/><path class="cls-3" d="M210.06,58.06a15.69,15.69,0,0,0-3-1.05,46.52,46.52,0,0,0-7.62-.79,47.07,47.07,0,0,1-5.05.05c-1.65.15-2.47,1.15-2.47,3v16.2h12.83c1,0,1.61.18,1.79.42,0,.84-.46,1.16-1.27,1H193.86c-1.37.14-2.05,1.14-2.05,3v15h6.94a31,31,0,0,0,11.1-1.69q3.84-1.72,4.05-4.47v5.63a2.14,2.14,0,0,1-.74,1.79,3,3,0,0,1-1.57.37H185.87V58.85q.31-4.26,4.68-4.26,15-.15,19.83,0c2.34.14,3.52,1.16,3.52,3v4.52A6.74,6.74,0,0,0,210.06,58.06Z"/><path class="cls-3" d="M216.58,63H221a3,3,0,0,1,2.68,1.37q.42.74,7.1,12.05l4.84-11.84c.28-1,.81-1.51,1.58-1.58h5c-.24.39-.63.93-1.15,1.63l-7.73,10.21a7,7,0,0,0-1.58,2.73,1.56,1.56,0,0,0,.21.79q.42.69,10.31,18.2H238a2,2,0,0,1-1.84-1q-.42-.53-7.68-12.36l-5.42,11.73a2.57,2.57,0,0,1-2.31,1.58h-4.16L227.1,82.62a1.61,1.61,0,0,0,.32-1,2.48,2.48,0,0,0-.34-1.19Q226.74,79.84,216.58,63Z"/><path class="cls-3" d="M270.59,80.52V96.46h-3.83a1.79,1.79,0,0,1-2-1.84V88.46a21.26,21.26,0,0,1-5.16,5.73,12.27,12.27,0,0,1-6.89,2.27,6.94,6.94,0,0,1-4.42-1.37,7.36,7.36,0,0,1-2.21-3,15.37,15.37,0,0,1-1.15-5.94c0-4.88,1.83-8.36,5.5-10.47a9.06,9.06,0,0,1,4.6-1.16,10.26,10.26,0,0,1,3.59.64,12.32,12.32,0,0,1,4.29,2.41,2.88,2.88,0,0,0,1.48.9c.17,0,.26-.11.26-.32,0,0,0-.44.05-1.23s.06-1.52.06-2.19q0-8.15-3.71-9.3a9.33,9.33,0,0,0-2.91-.48,7.46,7.46,0,0,0-2.32.37,14,14,0,0,0-3.55,2c-1.09.81-2.2,1.61-3.33,2.42s-2,1.23-2.28,1.05a.35.35,0,0,1-.1-.26,3,3,0,0,1,.73-1.16,21.53,21.53,0,0,1,3.53-3.15,26.88,26.88,0,0,1,2.37-1.53,13.46,13.46,0,0,1,7.62-2,13.11,13.11,0,0,1,2.53.32,7.84,7.84,0,0,1,4.83,3.1,10.71,10.71,0,0,1,2.06,5.39A85.7,85.7,0,0,1,270.59,80.52Zm-5.83,3.42a3.27,3.27,0,0,0-.16-1,9.12,9.12,0,0,0-2-3,12,12,0,0,0-2.8-2.37,6.46,6.46,0,0,0-4.14-1,4.51,4.51,0,0,0-2.36,1.29,6.14,6.14,0,0,0-1.62,2.29,13.77,13.77,0,0,0-.79,6.1q.48,6,4.83,6.57t7.75-5.26A7.32,7.32,0,0,0,264.76,83.94Z"/><path class="cls-3" d="M273.33,63h4.51a1.78,1.78,0,0,1,1.59,1.79V80.36q5.25-11.35,7.41-14.3C288.59,64,290.21,63,291.72,63a4.73,4.73,0,0,1,3.2,1.48,7.8,7.8,0,0,1,2.37,4.68,67.92,67.92,0,0,1,.42,12.25q1-2.7,2.52-6a38.63,38.63,0,0,1,6-9.84c1.54-1.69,3-2.54,4.46-2.54a4.41,4.41,0,0,1,3.78,2.48,8.78,8.78,0,0,1,1.31,4.65V96.51h-4.1c-1.23,0-1.89-.74-2-2.22V71a4.93,4.93,0,0,0-.42-2.11,1.62,1.62,0,0,0-1.73-1c-.81.1-1.76,1-2.84,2.64a43.37,43.37,0,0,0-6.1,13.56,19.31,19.31,0,0,0-.85,5.92v4.69c.25,1.1-.49,1.69-2.2,1.8h-4.16V70.69c0-1.83-.51-2.76-1.52-2.79q-1.8-.11-3.42,2.1c-.28.35-1,1.6-2.21,3.74q-1.15,2.1-4.16,8.73a8.26,8.26,0,0,0-.68,2.94v9.15c-.25,1.19-.79,1.84-1.63,2h-4.47Z"/><path class="cls-3" d="M324.66,62.85V94.93c.17.91-.42,1.4-1.79,1.47h-4.31V64.85c-.14-1.26.56-1.93,2.1-2Zm0-6.58a2.82,2.82,0,0,1-.9,2.13,3,3,0,0,1-2.18.87,2.94,2.94,0,0,1-2.15-.87,2.87,2.87,0,0,1-.87-2.13,3,3,0,0,1,.87-2.15,2.88,2.88,0,0,1,2.15-.89,3,3,0,0,1,2.18.89A2.91,2.91,0,0,1,324.66,56.27Z"/><path class="cls-3" d="M351.17,55.38q-1.95-3.26-5-3.26a5,5,0,0,0-4.36,2.52Q339.59,58,339.6,66.16c0,2.11.52,3.32,1.57,3.63a29.69,29.69,0,0,0,3.53.63l4.05.63q1.68.27,1.68.69c0,.14-.28.3-.84.47h-10V94.83c-.07,1.08-.62,1.63-1.63,1.63h-4.42V73.89c-.07-1.26-.53-1.89-1.37-1.89h-4.73q0-2.31,1.26-2.31h4.84s0-1,.1-3.06.13-3,.16-3.36a14.54,14.54,0,0,1,.58-3A16.58,16.58,0,0,1,337.28,55q3.42-4.1,7.68-4.37a13.66,13.66,0,0,1,6.1,1.16c1.44.7,2.07,1.55,1.9,2.53v4.41A32.63,32.63,0,0,0,351.17,55.38Z"/><path class="cls-3" d="M355.43,62.85h4.69c.81,0,1.47.58,2,1.73q.38.84,11,25.82.84-2.52,1.68-5a38.7,38.7,0,0,0,1.42-5.17q1.26-7.32,2.68-15.27.36-1.27.36-1.32a1.29,1.29,0,0,1,1.27-.79h4.15l-8.1,23.06q-1.21,3.48-3.74,9.58a27.78,27.78,0,0,1-5.31,8.43,13.07,13.07,0,0,1-5.78,3.53,11.06,11.06,0,0,1-3,.47,3.85,3.85,0,0,1-2.63-.79,2.42,2.42,0,0,1-.47-1.79V101.4a7,7,0,0,0,2.86,2.92,5.77,5.77,0,0,0,3.87.81q3.15-.42,6.31-4.79a4.14,4.14,0,0,0,.89-3.37Q369.36,96.24,355.43,62.85Z"/></svg>