<svg id="Layer_1" data-name="Layer 1" xmlns="http://www.w3.org/2000/svg" viewBox="0 0 191.33 170.33"><defs><style>.cls-1{fill:#4153a0;}.cls-2{fill:#428ecc;}.cls-3{fill:#fff;}</style></defs><path class="cls-1" d="M127.07,135.43S70.64,170.5,33.75,119,47.63-17,125.06,25.13c0,0-85.46-21.73-83.82,63C41.24,88.14,51.65,158.44,127.07,135.43Z"/><path class="cls-2" d="M80.57,36s45.56-28.31,75.35,13.27S144.71,159.09,82.19,125c0,0,69,17.55,67.68-50.87C149.87,74.16,141.47,17.39,80.57,36Z"/><path class="cls-3" d="M102.51,59a15.45,15.45,0,0,0-3-1.05,46.52,46.52,0,0,0-7.62-.79q1.1,0-5,.05c-1.65.14-2.47,1.14-2.47,3v16.2H97.2c1,0,1.61.17,1.79.42,0,.84-.46,1.15-1.26.94H86.31c-1.36.15-2,1.14-2,3v15H91.2a31.25,31.25,0,0,0,11.1-1.68q3.84-1.74,4-4.47v5.63a2.15,2.15,0,0,1-.73,1.79,3.18,3.18,0,0,1-1.58.37H78.32V59.82q.32-4.26,4.68-4.26,15-.16,19.83,0c2.34.14,3.52,1.15,3.52,3v4.52A6.72,6.72,0,0,0,102.51,59Z"/></svg>